<svg width="125" height="42" viewBox="0 0 125 42" fill="none" xmlns="http://www.w3.org/2000/svg">
<path d="M21.3242 0.566459C18.8341 1.44326 16.1336 3.4073 15.1515 5.09076C14.3098 6.49364 14.2046 6.56379 13.3278 6.24814C12.0301 5.75713 9.96088 6.14292 7.89162 7.23016C5.82237 8.38754 2.56066 11.8246 1.22792 14.2797C-1.40248 19.1196 0.351122 23.4685 4.98064 23.4685C6.80439 23.4685 10.3467 21.8552 12.3458 20.1016C13.2577 19.295 13.2927 19.1547 12.8017 18.6637C12.3107 18.1376 12.0301 18.2428 9.85566 19.7158C6.06787 22.2761 3.61283 22.5567 2.24501 20.5926C-0.385392 16.8399 7.68119 6.87944 12.6264 7.82639L13.7837 8.03682V12.3156C13.7837 16.419 13.8539 16.7347 14.8359 18.7338C15.9933 21.0836 17.0805 21.75 18.799 21.1538C20.2721 20.6628 21.1839 17.6466 20.6579 15.0863C20.1669 12.5962 19.1498 10.6672 17.3962 8.84348C16.0283 7.44059 15.9933 7.33538 16.4141 6.28321C17.326 4.0386 21.5347 1.72384 24.6912 1.72384C26.5149 1.72384 28.4789 2.5305 29.2155 3.58266C29.6363 4.21396 29.6363 4.38932 29.0401 5.1609C27.532 7.08987 28.5842 10.1411 30.5833 9.65013C31.8108 9.33449 32.3018 8.24725 32.0914 6.38843C31.916 4.88033 31.9862 4.81018 33.1085 4.31917C38.8954 1.8992 46.2254 8.98376 43.9808 14.8408L43.3846 16.419L41.7011 16.2086C39.3162 15.928 38.4394 16.4892 38.5797 18.1376C38.72 19.9263 40.0177 20.5576 41.8765 19.786C42.613 19.5054 43.3144 19.3651 43.4898 19.5405C44.1211 20.1718 45.1733 23.9245 45.1733 25.5729C45.1733 28.8346 43.7704 31.0441 40.7892 32.447L39.0356 33.2887L38.6148 31.8157C37.4574 27.9928 33.9151 27.5369 34.4061 31.2896C34.5464 32.447 34.8971 33.0082 35.9493 33.92L37.282 35.0774L36.4052 36.7258C34.3009 40.724 27.8827 41.5657 25.0769 38.2339C24.13 37.0765 24.0949 36.4452 25.0068 36.4452C25.7433 36.4452 27.2865 34.376 27.2865 33.3238C27.2865 30.6583 23.9196 31.1493 22.7271 33.9902C22.201 35.2528 21.71 35.2878 19.3602 34.2006C17.2559 33.2186 15.9231 31.6403 15.362 29.4308C14.9762 27.8526 15.1165 27.0459 16.2037 24.5207C16.344 24.2051 16.1686 23.8193 15.7478 23.5738C15.1165 23.188 14.9762 23.2932 14.3449 24.661C13.2927 26.8004 13.3629 29.5009 14.5202 31.8157C15.6426 34.0603 17.1857 35.3229 20.1669 36.3049C21.9205 36.9012 22.5518 37.2869 22.9376 38.0585C24.6561 41.5307 29.1453 42.9336 33.3189 41.3553C36.1247 40.2681 37.8432 38.5145 38.5096 36.0594C38.7901 35.0073 39.0707 34.6916 39.6669 34.6916C40.9295 34.6916 44.051 32.6574 45.1733 31.1143C47.3127 28.1682 47.4529 24.17 45.5941 20.1718L44.5069 17.857L45.2434 16.2086C46.8567 12.5962 45.9448 8.5629 42.8585 5.44148C39.9826 2.60064 36.8261 1.65369 33.2137 2.56557L31.0041 3.12672L29.952 2.10963C27.7775 0.00530521 24.5509 -0.555848 21.3242 0.566459ZM30.443 7.23016C30.443 7.89653 30.3378 8.07189 30.0923 7.82639C29.8818 7.61595 29.8117 7.19509 29.952 6.87944C30.2676 6.03771 30.443 6.14292 30.443 7.23016ZM16.9402 10.7023C18.0976 12.2104 19.2199 15.0162 19.2199 16.419C19.2199 16.9451 19.0445 17.8921 18.8341 18.5234C18.273 20.1016 17.1507 19.8912 16.2388 18.0324C15.7478 16.9802 15.5373 15.6825 15.4321 13.0171C15.3269 10.8075 15.3971 9.4397 15.6426 9.4397C15.8179 9.4397 16.4141 10.0009 16.9402 10.7023ZM41.4556 17.8219C41.7011 18.2077 40.684 18.6286 40.193 18.348C39.9826 18.2077 40.0177 17.9973 40.2982 17.8219C40.9295 17.4361 41.2101 17.4361 41.4556 17.8219ZM36.7209 31.5702C37.0365 32.5171 37.0365 32.6224 36.5806 32.2366C36.3 31.9911 36.0545 31.5001 36.0545 31.1493C36.0545 30.1673 36.3 30.3427 36.7209 31.5702ZM25.1822 34.1655C24.9367 34.4812 24.6561 34.6215 24.5509 34.5163C24.4457 34.4461 24.5859 34.1305 24.8314 33.8148C25.0769 33.4992 25.3575 33.3589 25.4627 33.4641C25.568 33.5342 25.4277 33.8499 25.1822 34.1655Z" fill="white"/>
<path d="M9.39952 12.4215C8.90851 12.7021 8.13693 12.8424 7.64592 12.7722C7.01462 12.6319 6.62883 12.7722 6.34825 13.2632C5.43637 14.7363 9.08387 14.9116 10.9427 13.4737C11.5038 13.0528 11.5389 12.8774 11.1531 12.4215C10.627 11.7902 10.5218 11.7902 9.39952 12.4215Z" fill="white"/>
<path d="M64.613 29V11.9375H70.7185C72.4998 11.9375 73.8826 12.3047 74.8669 13.0391C75.8591 13.7656 76.3552 14.8867 76.3552 16.4023C76.3552 17.3555 76.1326 18.1367 75.6873 18.7461C75.2498 19.3555 74.7029 19.7734 74.0466 20V20.0469C74.8591 20.2734 75.5271 20.7305 76.0505 21.418C76.574 22.0977 76.8357 23 76.8357 24.125C76.8357 25.6719 76.3083 26.8711 75.2537 27.7227C74.199 28.5742 72.7966 29 71.0466 29H64.613ZM67.7185 26.7148H70.8474C71.824 26.7148 72.5388 26.4688 72.9919 25.9766C73.4529 25.4766 73.6833 24.8086 73.6833 23.9727C73.6833 23.1289 73.4529 22.4609 72.9919 21.9688C72.5388 21.4766 71.824 21.2305 70.8474 21.2305H67.7185V26.7148ZM67.7185 19.1094H70.531C71.4919 19.1094 72.1873 18.8945 72.6169 18.4648C73.0466 18.0273 73.2615 17.4219 73.2615 16.6484C73.2615 15.875 73.0466 15.2852 72.6169 14.8789C72.1873 14.4648 71.4919 14.2578 70.531 14.2578H67.7185V19.1094ZM78.6169 23.1875V22.8125C78.6169 20.9688 79.156 19.4844 80.2341 18.3594C81.3201 17.2344 82.7302 16.6719 84.4646 16.6719C86.199 16.6719 87.5466 17.2031 88.5076 18.2656C89.4763 19.3203 89.9607 20.7734 89.9607 22.625V23.6914H80.5505V21.7461H86.9373V21.5234C86.9373 20.8047 86.7263 20.1953 86.3044 19.6953C85.8904 19.1875 85.281 18.9336 84.4763 18.9336C83.5544 18.9336 82.8552 19.2773 82.3787 19.9648C81.9099 20.6523 81.6755 21.5469 81.6755 22.6484V23.2812C81.6755 24.4062 81.9255 25.3164 82.4255 26.0117C82.9333 26.6992 83.6912 27.043 84.699 27.043C85.3708 27.043 85.949 26.8867 86.4333 26.5742C86.9177 26.2617 87.3083 25.8906 87.6052 25.4609L89.8083 26.7734C89.4255 27.4922 88.8005 28.1016 87.9333 28.6016C87.0662 29.0938 85.9998 29.3398 84.7341 29.3398C82.8044 29.3398 81.3005 28.7773 80.2224 27.6523C79.1521 26.5195 78.6169 25.0312 78.6169 23.1875ZM92.1873 29V11.2344H95.2576V29H92.1873ZM98.3279 29V17.0117H101.398V29H98.3279ZM98.0466 13.4023C98.0466 12.9336 98.2029 12.5391 98.5154 12.2188C98.8357 11.8906 99.2849 11.7266 99.863 11.7266C100.449 11.7266 100.894 11.8867 101.199 12.207C101.511 12.5273 101.668 12.9258 101.668 13.4023C101.668 13.8789 101.511 14.2812 101.199 14.6094C100.886 14.9297 100.437 15.0898 99.8513 15.0898C99.2732 15.0898 98.8279 14.9297 98.5154 14.6094C98.2029 14.2812 98.0466 13.8789 98.0466 13.4023ZM103.765 23.1875V22.8125C103.765 20.9688 104.304 19.4844 105.383 18.3594C106.469 17.2344 107.879 16.6719 109.613 16.6719C111.347 16.6719 112.695 17.2031 113.656 18.2656C114.625 19.3203 115.109 20.7734 115.109 22.625V23.6914H105.699V21.7461H112.086V21.5234C112.086 20.8047 111.875 20.1953 111.453 19.6953C111.039 19.1875 110.429 18.9336 109.625 18.9336C108.703 18.9336 108.004 19.2773 107.527 19.9648C107.058 20.6523 106.824 21.5469 106.824 22.6484V23.2812C106.824 24.4062 107.074 25.3164 107.574 26.0117C108.082 26.6992 108.84 27.043 109.847 27.043C110.519 27.043 111.097 26.8867 111.582 26.5742C112.066 26.2617 112.457 25.8906 112.754 25.4609L114.957 26.7734C114.574 27.4922 113.949 28.1016 113.082 28.6016C112.215 29.0938 111.148 29.3398 109.883 29.3398C107.953 29.3398 106.449 28.7773 105.371 27.6523C104.301 26.5195 103.765 25.0312 103.765 23.1875ZM117.301 29V17.0117H120.219L120.277 18.4531H120.336C120.609 17.9766 120.98 17.5664 121.449 17.2227C121.918 16.8789 122.457 16.707 123.066 16.707C123.246 16.707 123.426 16.7266 123.605 16.7656C123.785 16.7969 123.91 16.8281 123.98 16.8594V19.4609C123.84 19.4219 123.683 19.3945 123.511 19.3789C123.34 19.3555 123.156 19.3438 122.961 19.3438C122.383 19.3438 121.863 19.5117 121.402 19.8477C120.941 20.1836 120.601 20.6094 120.383 21.125V29H117.301Z" fill="white"/>
</svg>
