<svg width="47" height="42" viewBox="0 0 47 42" fill="none" xmlns="http://www.w3.org/2000/svg">
<path d="M21.3242 0.566459C18.8341 1.44326 16.1336 3.4073 15.1515 5.09076C14.3098 6.49364 14.2046 6.56379 13.3278 6.24814C12.0301 5.75713 9.96088 6.14292 7.89162 7.23016C5.82237 8.38754 2.56066 11.8246 1.22792 14.2797C-1.40248 19.1196 0.351122 23.4685 4.98064 23.4685C6.80439 23.4685 10.3467 21.8552 12.3458 20.1016C13.2577 19.295 13.2927 19.1547 12.8017 18.6637C12.3107 18.1376 12.0301 18.2428 9.85566 19.7158C6.06787 22.2761 3.61283 22.5567 2.24501 20.5926C-0.385392 16.8399 7.68119 6.87944 12.6264 7.82639L13.7837 8.03682V12.3156C13.7837 16.419 13.8539 16.7347 14.8359 18.7338C15.9933 21.0836 17.0805 21.75 18.799 21.1538C20.2721 20.6628 21.1839 17.6466 20.6579 15.0863C20.1669 12.5962 19.1498 10.6672 17.3962 8.84348C16.0283 7.44059 15.9933 7.33538 16.4141 6.28321C17.326 4.0386 21.5347 1.72384 24.6912 1.72384C26.5149 1.72384 28.4789 2.5305 29.2155 3.58266C29.6363 4.21396 29.6363 4.38932 29.0401 5.1609C27.532 7.08987 28.5842 10.1411 30.5833 9.65013C31.8108 9.33449 32.3018 8.24725 32.0914 6.38843C31.916 4.88033 31.9862 4.81018 33.1085 4.31917C38.8954 1.8992 46.2254 8.98376 43.9808 14.8408L43.3846 16.419L41.7011 16.2086C39.3162 15.928 38.4394 16.4892 38.5797 18.1376C38.72 19.9263 40.0177 20.5576 41.8765 19.786C42.613 19.5054 43.3144 19.3651 43.4898 19.5405C44.1211 20.1718 45.1733 23.9245 45.1733 25.5729C45.1733 28.8346 43.7704 31.0441 40.7892 32.447L39.0356 33.2887L38.6148 31.8157C37.4574 27.9928 33.9151 27.5369 34.4061 31.2896C34.5464 32.447 34.8971 33.0082 35.9493 33.92L37.282 35.0774L36.4052 36.7258C34.3009 40.724 27.8827 41.5657 25.0769 38.2339C24.13 37.0765 24.0949 36.4452 25.0068 36.4452C25.7433 36.4452 27.2865 34.376 27.2865 33.3238C27.2865 30.6583 23.9196 31.1493 22.7271 33.9902C22.201 35.2528 21.71 35.2878 19.3602 34.2006C17.2559 33.2186 15.9231 31.6403 15.362 29.4308C14.9762 27.8526 15.1165 27.0459 16.2037 24.5207C16.344 24.2051 16.1686 23.8193 15.7478 23.5738C15.1165 23.188 14.9762 23.2932 14.3449 24.661C13.2927 26.8004 13.3629 29.5009 14.5202 31.8157C15.6426 34.0603 17.1857 35.3229 20.1669 36.3049C21.9205 36.9012 22.5518 37.2869 22.9376 38.0585C24.6561 41.5307 29.1453 42.9336 33.3189 41.3553C36.1247 40.2681 37.8432 38.5145 38.5096 36.0594C38.7901 35.0073 39.0707 34.6916 39.6669 34.6916C40.9295 34.6916 44.051 32.6574 45.1733 31.1143C47.3127 28.1682 47.4529 24.17 45.5941 20.1718L44.5069 17.857L45.2434 16.2086C46.8567 12.5962 45.9448 8.5629 42.8585 5.44148C39.9826 2.60064 36.8261 1.65369 33.2137 2.56557L31.0041 3.12672L29.952 2.10963C27.7775 0.00530521 24.5509 -0.555848 21.3242 0.566459ZM30.443 7.23016C30.443 7.89653 30.3378 8.07189 30.0923 7.82639C29.8818 7.61595 29.8117 7.19509 29.952 6.87944C30.2676 6.03771 30.443 6.14292 30.443 7.23016ZM16.9402 10.7023C18.0976 12.2104 19.2199 15.0162 19.2199 16.419C19.2199 16.9451 19.0445 17.8921 18.8341 18.5234C18.273 20.1016 17.1507 19.8912 16.2388 18.0324C15.7478 16.9802 15.5373 15.6825 15.4321 13.0171C15.3269 10.8075 15.3971 9.4397 15.6426 9.4397C15.8179 9.4397 16.4141 10.0009 16.9402 10.7023ZM41.4556 17.8219C41.7011 18.2077 40.684 18.6286 40.193 18.348C39.9826 18.2077 40.0177 17.9973 40.2982 17.8219C40.9295 17.4361 41.2101 17.4361 41.4556 17.8219ZM36.7209 31.5702C37.0365 32.5171 37.0365 32.6224 36.5806 32.2366C36.3 31.9911 36.0545 31.5001 36.0545 31.1493C36.0545 30.1673 36.3 30.3427 36.7209 31.5702ZM25.1822 34.1655C24.9367 34.4812 24.6561 34.6215 24.5509 34.5163C24.4457 34.4461 24.5859 34.1305 24.8314 33.8148C25.0769 33.4992 25.3575 33.3589 25.4627 33.4641C25.568 33.5342 25.4277 33.8499 25.1822 34.1655Z" fill="#2B8BE0"/>
<path d="M9.39952 12.4215C8.90851 12.7021 8.13693 12.8424 7.64592 12.7722C7.01462 12.6319 6.62883 12.7722 6.34825 13.2632C5.43637 14.7363 9.08387 14.9116 10.9427 13.4737C11.5038 13.0528 11.5389 12.8774 11.1531 12.4215C10.627 11.7902 10.5218 11.7902 9.39952 12.4215Z" fill="#2B8BE0"/>
</svg>
